<svg id="Group_66857" data-name="Group 66857" xmlns="http://www.w3.org/2000/svg" width="208" height="60" viewBox="0 0 208 60">
  <path id="Path_93794" data-name="Path 93794" d="M201.7,60.807H7.917A7.1,7.1,0,0,1,.808,53.713V7.9A7.1,7.1,0,0,1,7.917.807H201.7A7.1,7.1,0,0,1,208.808,7.9V53.713a7.1,7.1,0,0,1-7.109,7.094" transform="translate(-0.808 -0.807)"/>
  <path id="Path_93796" data-name="Path 93796" d="M72.342,17.921l-.873,2.865H69.561l3.246-10.11h2.36l3.291,10.11H76.476l-.918-2.865Zm2.9-1.4-.8-2.49c-.195-.615-.36-1.3-.509-1.89H73.9c-.149.585-.3,1.29-.481,1.89l-.782,2.49Z" transform="translate(-3.355 -1.19)" fill="#fff"/>
  <path id="Path_93797" data-name="Path 93797" d="M81.594,13.594,82.781,17.3c.211.645.36,1.23.5,1.83h.045c.136-.6.3-1.17.5-1.83l1.172-3.705H86.93l-2.8,7.305H82.315l-2.72-7.305Z" transform="translate(-3.726 -1.301)" fill="#fff"/>
  <path id="Path_93798" data-name="Path 93798" d="M94.637,19.138a9.8,9.8,0,0,0,.12,1.755H93.088l-.135-.809h-.045a2.68,2.68,0,0,1-2.165.974,2.17,2.17,0,0,1-2.3-2.175c0-1.831,1.639-2.775,4.344-2.76V16c0-.48-.2-1.275-1.488-1.275a3.882,3.882,0,0,0-1.969.54l-.361-1.2a5.286,5.286,0,0,1,2.645-.645c2.346,0,3.022,1.485,3.022,3.089Zm-1.8-1.815c-1.308-.015-2.556.256-2.556,1.366a.969.969,0,0,0,1.053,1.049,1.517,1.517,0,0,0,1.458-1.005,1.235,1.235,0,0,0,.045-.4Z" transform="translate(-4.054 -1.296)" fill="#fff"/>
  <path id="Path_93799" data-name="Path 93799" d="M98.5,12.421a1.046,1.046,0,1,1,.015,0Zm-.917,1.049h1.849v7.305H97.585Z" transform="translate(-4.389 -1.181)" fill="#fff"/>
  <rect id="Rectangle_24218" data-name="Rectangle 24218" width="1.849" height="10.666" transform="translate(97.705 8.932)" fill="#fff"/>
  <path id="Path_93800" data-name="Path 93800" d="M112.631,19.138a9.9,9.9,0,0,0,.119,1.755h-1.668l-.136-.809H110.9a2.678,2.678,0,0,1-2.165.974,2.171,2.171,0,0,1-2.3-2.175c0-1.831,1.639-2.775,4.344-2.76V16c0-.48-.194-1.275-1.488-1.275a3.882,3.882,0,0,0-1.969.54l-.36-1.2a5.282,5.282,0,0,1,2.645-.645c2.345,0,3.022,1.485,3.022,3.089Zm-1.8-1.815c-1.307-.015-2.555.256-2.555,1.366a.968.968,0,0,0,1.052,1.049,1.515,1.515,0,0,0,1.458-1.005,1.231,1.231,0,0,0,.045-.4Z" transform="translate(-4.72 -1.296)" fill="#fff"/>
  <path id="Path_93801" data-name="Path 93801" d="M115.58,10.1h1.85v4.366h.03a2.65,2.65,0,0,1,2.345-1.17c1.788,0,3.065,1.485,3.051,3.705,0,2.624-1.669,3.93-3.321,3.93a2.519,2.519,0,0,1-2.315-1.261h-.03l-.09,1.1h-1.577c.029-.495.059-1.3.059-2.04Zm1.85,7.65a2.122,2.122,0,0,0,.044.435,1.69,1.69,0,0,0,1.638,1.29c1.157,0,1.865-.915,1.865-2.4,0-1.291-.616-2.34-1.849-2.34a1.718,1.718,0,0,0-1.64,1.35,2.277,2.277,0,0,0-.059.48Z" transform="translate(-5.057 -1.168)" fill="#fff"/>
  <rect id="Rectangle_24219" data-name="Rectangle 24219" width="1.849" height="10.666" transform="translate(119.976 8.932)" fill="#fff"/>
  <path id="Path_93802" data-name="Path 93802" d="M131.385,17.759a1.988,1.988,0,0,0,2.254,1.89,5.9,5.9,0,0,0,2.029-.331l.272,1.259a6.582,6.582,0,0,1-2.557.466,3.46,3.46,0,0,1-3.774-3.69c0-2.025,1.234-3.929,3.578-3.929,2.375,0,3.156,1.949,3.156,3.555a4.676,4.676,0,0,1-.06.78Zm3.217-1.292a1.572,1.572,0,0,0-1.519-1.784,1.807,1.807,0,0,0-1.7,1.784Z" transform="translate(-5.579 -1.297)" fill="#fff"/>
  <path id="Path_93803" data-name="Path 93803" d="M145.936,21.059a3.536,3.536,0,0,1-3.669-3.765,3.611,3.611,0,0,1,3.788-3.871,3.509,3.509,0,0,1,3.638,3.751,3.619,3.619,0,0,1-3.743,3.885Zm.06-1.336c1.052,0,1.788-1.02,1.788-2.5,0-1.141-.511-2.461-1.773-2.461-1.309,0-1.835,1.275-1.835,2.491,0,1.41.708,2.474,1.8,2.474Z" transform="translate(-6.047 -1.296)" fill="#fff"/>
  <path id="Path_93804" data-name="Path 93804" d="M152.238,15.763c0-.84-.03-1.545-.061-2.176h1.608l.091,1.1h.045a2.691,2.691,0,0,1,2.346-1.26c1.277,0,2.6.824,2.6,3.135v4.335h-1.849V16.768c0-1.05-.391-1.845-1.4-1.845A1.55,1.55,0,0,0,154.177,16a1.7,1.7,0,0,0-.091.584v4.305h-1.849Z" transform="translate(-6.415 -1.296)" fill="#fff"/>
  <path id="Path_93805" data-name="Path 93805" d="M167.86,11.643v1.875h1.758V14.9H167.86v3.211c0,.9.241,1.35.947,1.35a2.425,2.425,0,0,0,.721-.075l.031,1.394a4.052,4.052,0,0,1-1.339.2,2.118,2.118,0,0,1-1.593-.6,2.873,2.873,0,0,1-.587-2.055V14.9H165v-1.38h1.037V12.153Z" transform="translate(-6.89 -1.231)" fill="#fff"/>
  <path id="Path_93806" data-name="Path 93806" d="M171.934,10.1h1.849v4.35h.03a2.439,2.439,0,0,1,.917-.825,2.618,2.618,0,0,1,1.278-.33c1.247,0,2.556.825,2.556,3.165v4.305h-1.849v-4.11c0-1.05-.391-1.86-1.414-1.86a1.542,1.542,0,0,0-1.442,1.035,1.67,1.67,0,0,0-.075.555v4.38h-1.849Z" transform="translate(-7.147 -1.168)" fill="#fff"/>
  <path id="Path_93807" data-name="Path 93807" d="M182.837,17.759a1.988,1.988,0,0,0,2.254,1.89,5.9,5.9,0,0,0,2.029-.331l.272,1.259a6.573,6.573,0,0,1-2.556.466,3.46,3.46,0,0,1-3.774-3.69c0-2.025,1.234-3.929,3.578-3.929,2.375,0,3.157,1.949,3.157,3.555a4.677,4.677,0,0,1-.06.78Zm3.216-1.292a1.57,1.57,0,0,0-1.518-1.784,1.806,1.806,0,0,0-1.7,1.784Z" transform="translate(-7.485 -1.297)" fill="#fff"/>
  <path id="Path_93808" data-name="Path 93808" d="M47.529,30.933a9,9,0,0,1,4.3-7.551,9.241,9.241,0,0,0-7.276-3.926c-3.059-.32-6.029,1.831-7.585,1.831-1.59,0-4-1.8-6.579-1.746A9.7,9.7,0,0,0,22.231,24.5c-3.524,6.091-.9,15.041,2.481,19.967,1.691,2.41,3.665,5.1,6.249,5.007,2.528-.1,3.471-1.607,6.523-1.607,3.025,0,3.912,1.607,6.547,1.546,2.714-.044,4.42-2.422,6.05-4.856a19.817,19.817,0,0,0,2.769-5.624,8.7,8.7,0,0,1-5.32-8" transform="translate(-1.539 -1.534)" fill="#fff"/>
  <path id="Path_93809" data-name="Path 93809" d="M43.165,15.83A8.827,8.827,0,0,0,45.2,9.481,9.039,9.039,0,0,0,39.352,12.5a8.416,8.416,0,0,0-2.087,6.114,7.475,7.475,0,0,0,5.9-2.784" transform="translate(-2.157 -1.148)" fill="#fff"/>
  <path id="Path_93810" data-name="Path 93810" d="M85.841,49.448H82.319l-1.931-6.053h-6.7l-1.84,6.053H68.415l6.648-20.6h4.1Zm-6.032-8.592-1.744-5.379q-.28-.822-1.042-3.879h-.062q-.308,1.316-.982,3.879l-1.715,5.379Z" transform="translate(-3.312 -1.9)" fill="#fff"/>
  <path id="Path_93811" data-name="Path 93811" d="M103.708,42.057a8.432,8.432,0,0,1-2.053,5.991A6,6,0,0,1,97.093,50a4.572,4.572,0,0,1-4.228-2.109h-.059v7.824H89.5V39.7q0-2.383-.122-4.889h2.908l.185,2.354h.063a5.889,5.889,0,0,1,9.417-.58,8.18,8.18,0,0,1,1.761,5.47m-3.369.121a6.129,6.129,0,0,0-.979-3.577,3.394,3.394,0,0,0-2.878-1.467,3.437,3.437,0,0,0-2.221.81,3.765,3.765,0,0,0-1.3,2.128,4.256,4.256,0,0,0-.152,1.005v2.478a3.961,3.961,0,0,0,.992,2.734A3.3,3.3,0,0,0,96.387,47.4,3.377,3.377,0,0,0,99.3,45.969a6.3,6.3,0,0,0,1.043-3.791" transform="translate(-4.088 -2.119)" fill="#fff"/>
  <path id="Path_93812" data-name="Path 93812" d="M121.486,42.057a8.427,8.427,0,0,1-2.053,5.991A6,6,0,0,1,114.87,50a4.567,4.567,0,0,1-4.225-2.109h-.062v7.824h-3.307V39.7q0-2.383-.122-4.889h2.908l.185,2.354h.064a5.888,5.888,0,0,1,9.416-.58,8.179,8.179,0,0,1,1.758,5.47m-3.367.121a6.109,6.109,0,0,0-.982-3.577,3.39,3.39,0,0,0-2.877-1.467,3.441,3.441,0,0,0-2.222.81,3.762,3.762,0,0,0-1.3,2.128,4.135,4.135,0,0,0-.155,1.005v2.478a3.949,3.949,0,0,0,.994,2.734,3.3,3.3,0,0,0,2.59,1.115,3.382,3.382,0,0,0,2.908-1.435,6.332,6.332,0,0,0,1.043-3.791" transform="translate(-4.747 -2.119)" fill="#fff"/>
  <path id="Path_93813" data-name="Path 93813" d="M141.424,43.656a5.479,5.479,0,0,1-1.835,4.28,8.132,8.132,0,0,1-5.621,1.8,9.88,9.88,0,0,1-5.352-1.283l.766-2.75a9.085,9.085,0,0,0,4.783,1.313,4.527,4.527,0,0,0,2.912-.84,2.748,2.748,0,0,0,1.039-2.251,2.874,2.874,0,0,0-.856-2.112,7.992,7.992,0,0,0-2.852-1.593q-5.421-2.021-5.417-5.909a5.215,5.215,0,0,1,1.9-4.161,7.5,7.5,0,0,1,5.054-1.626,10.029,10.029,0,0,1,4.685.979L139.8,32.2a8.154,8.154,0,0,0-3.953-.947,3.991,3.991,0,0,0-2.723.855,2.45,2.45,0,0,0-.826,1.864,2.51,2.51,0,0,0,.947,2.016,10.7,10.7,0,0,0,3,1.591,10.2,10.2,0,0,1,3.92,2.5,5.246,5.246,0,0,1,1.256,3.576" transform="translate(-5.542 -1.888)" fill="#fff"/>
  <path id="Path_93814" data-name="Path 93814" d="M152.922,37.15h-3.645v7.213q0,2.752,1.932,2.75a6.018,6.018,0,0,0,1.468-.151l.091,2.505a7.445,7.445,0,0,1-2.571.366,3.968,3.968,0,0,1-3.062-1.19,5.847,5.847,0,0,1-1.1-4.005V37.15h-2.174V34.673h2.174V31.955l3.247-.98v3.7h3.645Z" transform="translate(-6.107 -1.981)" fill="#fff"/>
  <path id="Path_93815" data-name="Path 93815" d="M169.791,42.118a8.138,8.138,0,0,1-1.96,5.624A7,7,0,0,1,162.38,50a6.66,6.66,0,0,1-5.222-2.17,7.88,7.88,0,0,1-1.945-5.468,8.049,8.049,0,0,1,2.006-5.654,6.938,6.938,0,0,1,5.4-2.2,6.811,6.811,0,0,1,5.269,2.171,7.819,7.819,0,0,1,1.9,5.44m-3.432.107a6.678,6.678,0,0,0-.889-3.525,3.267,3.267,0,0,0-2.969-1.778,3.315,3.315,0,0,0-3.032,1.778,6.815,6.815,0,0,0-.885,3.588,6.674,6.674,0,0,0,.885,3.523,3.338,3.338,0,0,0,3,1.778,3.3,3.3,0,0,0,2.967-1.809,6.674,6.674,0,0,0,.919-3.556" transform="translate(-6.527 -2.118)" fill="#fff"/>
  <path id="Path_93816" data-name="Path 93816" d="M181.208,37.716a5.877,5.877,0,0,0-1.04-.09,3.14,3.14,0,0,0-2.7,1.316,4.949,4.949,0,0,0-.825,2.932v7.794h-3.305l.028-10.176q0-2.569-.121-4.678h2.88l.121,2.844h.089a5.086,5.086,0,0,1,1.655-2.353,4.009,4.009,0,0,1,2.391-.8,5.457,5.457,0,0,1,.825.059Z" transform="translate(-7.195 -2.119)" fill="#fff"/>
  <path id="Path_93817" data-name="Path 93817" d="M196.365,41.535a7.91,7.91,0,0,1-.12,1.5h-9.921a4.313,4.313,0,0,0,1.438,3.364,4.92,4.92,0,0,0,3.248,1.035,11.015,11.015,0,0,0,4.01-.7l.519,2.293a12.463,12.463,0,0,1-4.994.92,7.228,7.228,0,0,1-5.435-2.035,7.507,7.507,0,0,1-1.975-5.456,8.5,8.5,0,0,1,1.839-5.594,6.339,6.339,0,0,1,5.2-2.382,5.557,5.557,0,0,1,4.876,2.382,8.028,8.028,0,0,1,1.311,4.677m-3.154-.856a4.465,4.465,0,0,0-.64-2.536,2.9,2.9,0,0,0-2.638-1.376,3.146,3.146,0,0,0-2.632,1.346,4.879,4.879,0,0,0-.977,2.566Z" transform="translate(-7.561 -2.121)" fill="#fff"/>
</svg>
