<svg xmlns="http://www.w3.org/2000/svg" width="166" height="44" viewBox="0 0 166 44">
  <g id="Group_35559" data-name="Group 35559" transform="translate(-28 -77)">
    <rect id="Rectangle_1" data-name="Rectangle 1" width="166" height="44" transform="translate(28 77)" fill="none"/>
    <g id="gudsho" transform="translate(79.047 89.166)" style="mix-blend-mode: normal;isolation: isolate">
      <g id="Group_4" data-name="Group 4" transform="translate(0 0)" style="mix-blend-mode: normal;isolation: isolate">
        <path id="Path_18" data-name="Path 18" d="M356.809,774.277a9.2,9.2,0,0,1,9.636-9.48,10.7,10.7,0,0,1,7.364,2.82l-2.4,2.951a6.943,6.943,0,0,0-4.753-1.828,5.538,5.538,0,0,0,.209,11.073,7.845,7.845,0,0,0,3.969-1.045v-2.376h-5.144v-3.421h8.931v7.834a11.566,11.566,0,0,1-7.965,2.951C360.752,783.757,356.809,779.866,356.809,774.277Z" transform="translate(-356.809 -764.798)" fill="#fff"/>
        <path id="Path_19" data-name="Path 19" d="M457.3,777.516V766.443h4.492V777.15c0,2.481,1.149,3.786,3.343,3.786,2.168,0,3.343-1.306,3.343-3.786V766.443h4.492v11.073c0,4.727-3,7.521-7.834,7.521C460.277,785.036,457.3,782.242,457.3,777.516Z" transform="translate(-436.566 -766.104)" fill="#fff"/>
        <path id="Path_20" data-name="Path 20" d="M550.451,766.443h7.312c5.719,0,9.427,3.6,9.427,9.14s-3.708,9.14-9.427,9.14h-7.312Zm6.842,14.206c3.421,0,5.38-1.854,5.38-5.066s-1.959-5.066-5.38-5.066h-2.35v10.132Z" transform="translate(-510.497 -766.104)" fill="#fff"/>
        <path id="Path_21" data-name="Path 21" d="M637.4,781.6l1.932-3.238a9.492,9.492,0,0,0,5.589,1.854c1.828,0,2.873-.574,2.873-1.593,0-.966-.966-1.567-3.708-2.324-4.022-1.071-5.928-2.768-5.928-5.745,0-3.082,2.481-5.249,6.712-5.249a11.7,11.7,0,0,1,6.972,2.246l-1.959,3.134a8.462,8.462,0,0,0-4.857-1.619c-1.488,0-2.429.548-2.429,1.436s.758,1.436,3.473,2.22c4.257,1.175,6.241,2.951,6.241,5.876,0,3.264-2.9,5.458-7.286,5.458A12.727,12.727,0,0,1,637.4,781.6Z" transform="translate(-579.507 -765.201)" fill="#939393"/>
        <path id="Path_22" data-name="Path 22" d="M733.582,777.49h-6.764v7.234h-4.492v-18.28h4.492v6.92h6.764v-6.92H738.1v18.28h-4.518Z" transform="translate(-646.909 -766.104)" fill="#939393"/>
        <path id="Path_23" data-name="Path 23" d="M812.314,774.277c0-5.484,4.126-9.48,9.74-9.48,5.667,0,9.741,4,9.741,9.48s-4.074,9.479-9.741,9.479C816.44,783.757,812.314,779.762,812.314,774.277Zm9.74,5.38a5.385,5.385,0,1,0-5.144-5.38A5.062,5.062,0,0,0,822.054,779.657Z" transform="translate(-718.329 -764.798)" fill="#939393"/>
      </g>
    </g>
    <g id="Group_35502" data-name="Group 35502" transform="translate(-142.819 -655.478)">
      <path id="Path_15" data-name="Path 15" d="M209.685,803.889a2.731,2.731,0,0,1-4.156,2.328l-12.4-7.614v-6.287l15.221,9.227a2.728,2.728,0,0,1,1.333,2.345Z" transform="translate(-14.225 -42.858)" fill="#fff"/>
      <path id="Path_16" data-name="Path 16" d="M261.121,755.289a2.747,2.747,0,0,1-3.759,1.281l-15.822-7.9s-.129-.069-.349-.166l.527-.284s4.291-2.432,8.451-1.431l9.7,4.886A2.751,2.751,0,0,1,261.121,755.289Z" transform="translate(-48.646 -10.076)" fill="#fff"/>
      <path id="Path_17" data-name="Path 17" d="M215.748,736.712c-4.16-1-8.451,1.431-8.451,1.431l-14.166,7.6v-.12a12.206,12.206,0,0,1,2.734-7.409,9.512,9.512,0,0,1,1.175-.819l7.3-4.321a4.26,4.26,0,0,1,4.127-.119Z" transform="translate(-14.225 0)" fill="#939393"/>
      <g id="Group_5" data-name="Group 5" transform="translate(183.94 760.721)">
        <path id="Path_24" data-name="Path 24" d="M235.315,835.606c-.013.058-.028.115-.044.175s-.03.1-.046.144c-.01.031-.021.062-.033.094s-.023.064-.036.1-.026.063-.039.1-.028.064-.043.1a.182.182,0,0,1-.012.026,5.057,5.057,0,0,1-.323.58c-.068.1-.14.211-.219.318-.028.038-.058.078-.087.115-.053.069-.11.14-.17.213-.031.038-.064.076-.1.114-.1.11-.2.223-.308.336l.053-.036-1.777,1.383L222.223,847a4.073,4.073,0,0,1-4.006.4l-7.345-3.818h0a12.141,12.141,0,0,0,7.948-1.322l.277-.188.2-.137,12.187-8.751L233.22,832l.211.127.946.719A2.758,2.758,0,0,1,235.315,835.606Z" transform="translate(-210.872 -832.002)" fill="#fff"/>
      </g>
      <path id="Path_25" data-name="Path 25" d="M182.511,853.64" transform="translate(-6.619 -86.778)" fill="#fff"/>
      <path id="Path_26" data-name="Path 26" d="M192.17,826.134l-.277.188a12.141,12.141,0,0,1-7.948,1.322h0a16.025,16.025,0,0,1-1.9-1.134l-6.953-4.863a4.259,4.259,0,0,1-1.813-3.71l0-8.182c.806,4.2,5.213,7.106,5.213,7.106Z" transform="translate(0 -55.347)" fill="#939393"/>
      <path id="Path_27" data-name="Path 27" d="M181.646,752.34a12.2,12.2,0,0,0-2.741,7.416v16.178l-.422-.285s-4.37-2.881-5.2-7.055c-.007-.078-.01-.156-.012-.234v-7.943a4.077,4.077,0,0,1,1.668-3.669l6.823-4.535C181.722,752.254,181.684,752.3,181.646,752.34Z" transform="translate(0 -14.135)" fill="#fff"/>
      <path id="Path_28" data-name="Path 28" d="M258.955,801.053,253.3,804.86l-.053.036c3.116-3.227.521-5.162.521-5.162l-.946-.719-13.542-8.167a2.73,2.73,0,1,1,2.824-4.674l15.548,9.549,1.2.737a2.687,2.687,0,0,1,.632.531A2.73,2.73,0,0,1,258.955,801.053Z" transform="translate(-46.325 -38.168)" fill="#939393"/>
    </g>
  </g>
</svg>
