<svg xmlns="http://www.w3.org/2000/svg" width="166" height="44" viewBox="0 0 166 44">
  <g id="Gudsho_Logo" data-name="Gudsho Logo" transform="translate(-28 -77)">
    <rect id="Rectangle_1" data-name="Rectangle 1" width="166" height="44" transform="translate(28 77)" fill="none"/>
    <g id="Group_35475" data-name="Group 35475" transform="translate(-141.088 -112.427)">
      <path id="Path_1" data-name="Path 1" d="M207.39,262.285a2.352,2.352,0,0,1-3.58,2.006l-10.679-6.558v-5.415l13.11,7.947a2.35,2.35,0,0,1,1.148,2.02Z" transform="translate(-15.007 -45.212)" fill="#3700ff"/>
      <path id="Path_2" data-name="Path 2" d="M258.357,214.076a2.366,2.366,0,0,1-3.238,1.1l-13.628-6.8s-.111-.06-.3-.143l.454-.244s3.7-2.1,7.279-1.232l8.352,4.209A2.369,2.369,0,0,1,258.357,214.076Z" transform="translate(-51.318 -10.63)" fill="#01c8ff"/>
      <path id="Path_3" data-name="Path 3" d="M212.612,196.125c-3.583-.863-7.279,1.232-7.279,1.232l-12.2,6.545v-.1a10.514,10.514,0,0,1,2.355-6.382,8.174,8.174,0,0,1,1.012-.705l6.289-3.722a3.669,3.669,0,0,1,3.554-.1Z" transform="translate(-15.007 0)" fill="#07008e"/>
      <g id="Group_2" data-name="Group 2" transform="translate(182.461 216.805)">
        <path id="Path_10" data-name="Path 10" d="M231.925,295.106c-.011.05-.024.1-.038.15s-.026.082-.04.124-.018.054-.028.081-.02.055-.031.082-.023.054-.034.082-.024.055-.037.084a.151.151,0,0,1-.01.023,4.339,4.339,0,0,1-.278.5c-.058.089-.121.182-.189.274l-.075.1c-.045.06-.1.121-.146.183l-.084.1c-.082.1-.172.192-.265.289l.045-.031-1.53,1.191-8.535,6.583a3.509,3.509,0,0,1-3.451.342l-6.327-3.289h0a10.457,10.457,0,0,0,6.846-1.138l.239-.162.173-.118,10.5-7.537L230.121,292l.182.109.815.619A2.376,2.376,0,0,1,231.925,295.106Z" transform="translate(-210.872 -292.002)" fill="#f79e1b"/>
      </g>
      <path id="Path_11" data-name="Path 11" d="M182.511,313.64" transform="translate(-6.983 -91.546)" fill="#3700ff"/>
      <path id="Path_12" data-name="Path 12" d="M189.549,283.863l-.239.162a10.458,10.458,0,0,1-6.846,1.138h0a13.786,13.786,0,0,1-1.637-.977L174.835,280a3.669,3.669,0,0,1-1.561-3.2l0-7.048c.694,3.62,4.49,6.121,4.49,6.121Z" transform="translate(0 -58.388)" fill="#4600aa"/>
      <path id="Path_13" data-name="Path 13" d="M180.485,212.323a10.509,10.509,0,0,0-2.361,6.387v13.935l-.363-.246s-3.764-2.481-4.48-6.077c-.006-.067-.009-.135-.01-.2v-6.842a3.511,3.511,0,0,1,1.437-3.16l5.877-3.906C180.55,212.249,180.518,212.287,180.485,212.323Z" transform="translate(0 -14.911)" fill="#ff0067"/>
      <path id="Path_14" data-name="Path 14" d="M256.042,258.934l-4.87,3.279-.046.031c2.684-2.779.449-4.446.449-4.446l-.815-.619L239.1,250.144a2.352,2.352,0,1,1,2.432-4.026l13.392,8.225,1.036.635a2.314,2.314,0,0,1,.544.458A2.352,2.352,0,0,1,256.042,258.934Z" transform="translate(-48.87 -40.265)" fill="red"/>
    </g>
    <g id="gudsho" transform="translate(75.854 89.04)" style="mix-blend-mode: normal;isolation: isolate">
      <g id="Group_1" data-name="Group 1" transform="translate(0 0)" style="mix-blend-mode: normal;isolation: isolate">
        <path id="Path_4" data-name="Path 4" d="M356.809,234.181a9.109,9.109,0,0,1,9.538-9.383,10.591,10.591,0,0,1,7.289,2.792l-2.378,2.921a6.872,6.872,0,0,0-4.7-1.809,5.481,5.481,0,0,0,.207,10.96,7.765,7.765,0,0,0,3.929-1.034v-2.352H365.6v-3.386h8.84v7.754a11.447,11.447,0,0,1-7.883,2.921C360.712,243.563,356.809,239.712,356.809,234.181Z" transform="translate(-356.809 -224.798)" fill="#07008e"/>
        <path id="Path_5" data-name="Path 5" d="M457.3,237.4v-10.96h4.446v10.6c0,2.456,1.137,3.748,3.309,3.748,2.145,0,3.309-1.292,3.309-3.748v-10.6h4.446V237.4c0,4.678-2.972,7.444-7.754,7.444C460.247,244.847,457.3,242.081,457.3,237.4Z" transform="translate(-436.777 -226.107)" fill="#07008e"/>
        <path id="Path_6" data-name="Path 6" d="M550.451,226.443h7.238c5.66,0,9.331,3.567,9.331,9.047s-3.671,9.047-9.331,9.047h-7.238Zm6.772,14.061c3.386,0,5.325-1.835,5.325-5.015s-1.939-5.014-5.325-5.014H554.9V240.5Z" transform="translate(-510.904 -226.107)" fill="#07008e"/>
        <path id="Path_7" data-name="Path 7" d="M637.4,241.434l1.913-3.205a9.4,9.4,0,0,0,5.531,1.835c1.809,0,2.843-.569,2.843-1.577,0-.956-.956-1.551-3.67-2.3-3.981-1.06-5.868-2.74-5.868-5.686,0-3.05,2.456-5.2,6.643-5.2a11.586,11.586,0,0,1,6.9,2.223l-1.939,3.1a8.376,8.376,0,0,0-4.808-1.6c-1.473,0-2.4.543-2.4,1.422s.75,1.422,3.438,2.2c4.213,1.163,6.178,2.921,6.178,5.816,0,3.231-2.869,5.4-7.212,5.4A12.6,12.6,0,0,1,637.4,241.434Z" transform="translate(-580.098 -225.201)" fill="#07008e"/>
        <path id="Path_8" data-name="Path 8" d="M733.467,237.377h-6.695v7.16h-4.446V226.443h4.446v6.85h6.695v-6.85h4.472v18.094h-4.472Z" transform="translate(-647.679 -226.107)" fill="#07008e"/>
        <path id="Path_9" data-name="Path 9" d="M812.314,234.181c0-5.428,4.084-9.383,9.641-9.383,5.609,0,9.641,3.955,9.641,9.383s-4.032,9.383-9.641,9.383C816.4,243.563,812.314,239.609,812.314,234.181Zm9.641,5.325a5.33,5.33,0,1,0-5.092-5.325A5.011,5.011,0,0,0,821.955,239.506Z" transform="translate(-719.288 -224.798)" fill="#07008e"/>
      </g>
    </g>
  </g>
</svg>
